<svg width="16" height="16" viewBox="0 0 16 16" fill="none" xmlns="http://www.w3.org/2000/svg">
<g clip-path="url(#clip0)">
<rect width="16" height="16" rx="2" fill="white"/>
<rect x="14" y="-1" width="3" height="3" fill="#E1E1E1"/>
<rect x="14" y="5" width="3" height="3" fill="#E1E1E1"/>
<rect x="14" y="11" width="3" height="3" fill="#E1E1E1"/>
<rect x="11" y="2" width="3" height="3" fill="#E1E1E1"/>
<rect x="11" y="8" width="3" height="3" fill="#E1E1E1"/>
<rect x="11" y="14" width="3" height="3" fill="#E1E1E1"/>
<rect x="8" y="-1" width="3" height="3" fill="#E1E1E1"/>
<rect x="8" y="5" width="3" height="3" fill="#E1E1E1"/>
<rect x="8" y="11" width="3" height="3" fill="#E1E1E1"/>
<rect x="5" y="2" width="3" height="3" fill="#E1E1E1"/>
<rect x="5" y="8" width="3" height="3" fill="#E1E1E1"/>
<rect x="5" y="14" width="3" height="3" fill="#E1E1E1"/>
<rect x="2" y="-1" width="3" height="3" fill="#E1E1E1"/>
<rect x="2" y="5" width="3" height="3" fill="#E1E1E1"/>
<rect x="2" y="11" width="3" height="3" fill="#E1E1E1"/>
<rect x="-1" y="2" width="3" height="3" fill="#E1E1E1"/>
<rect x="-1" y="8" width="3" height="3" fill="#E1E1E1"/>
<rect x="-1" y="14" width="3" height="3" fill="#E1E1E1"/>
</g>
<defs>
<clipPath id="clip0">
<rect width="16" height="16" rx="2" fill="white"/>
</clipPath>
</defs>
</svg>
